HIERARCHY
ROOT Hips
{
 OFFSET 0.000000 0.000000 0.000000
 CHANNELS 6 Xposition Yposition Zposition Yrotation Xrotation Zrotation
 JOINT Chest
 {
  OFFSET 0.000000 9.585900 0.002600
  CHANNELS 3 Yrotation Xrotation Zrotation
  JOINT Chest2
  {
   OFFSET 0.000000 9.601200 -0.005300
   CHANNELS 3 Yrotation Xrotation Zrotation
   JOINT Chest3
   {
    OFFSET 0.000000 9.561800 0.000000
    CHANNELS 3 Yrotation Xrotation Zrotation
    JOINT Chest4
    {
     OFFSET 0.000000 9.552100 0.000000
     CHANNELS 3 Yrotation Xrotation Zrotation
     JOINT Neck
     {
      OFFSET 0.000000 14.453000 0.000000
      CHANNELS 3 Yrotation Xrotation Zrotation
      JOINT Head
      {
       OFFSET 0.000000 8.936500 -0.011300
       CHANNELS 3 Yrotation Xrotation Zrotation
       End Site
       {
        OFFSET 0.000000 17.073600 -0.006000
       }
      }
     }
     JOINT RightCollar
     {
      OFFSET -2.921100 9.558500 0.000000
      CHANNELS 3 Yrotation Xrotation Zrotation
      JOINT RightShoulder
      {
       OFFSET -13.519700 0.000000 0.000000
       CHANNELS 3 Yrotation Xrotation Zrotation
       JOINT RightElbow
       {
        OFFSET 0.000000 -29.696600 0.000000
        CHANNELS 3 Yrotation Xrotation Zrotation
        JOINT RightWrist
        {
         OFFSET 0.000000 -24.004700 0.000000
         CHANNELS 3 Yrotation Xrotation Zrotation
         End Site
         {
          OFFSET 0.000000 -17.728500 0.000000
         }
        }
       }
      }
     }
     JOINT LeftCollar
     {
      OFFSET 2.921100 9.558500 0.000000
      CHANNELS 3 Yrotation Xrotation Zrotation
      JOINT LeftShoulder
      {
       OFFSET 13.519700 0.000000 0.000000
       CHANNELS 3 Yrotation Xrotation Zrotation
       JOINT LeftElbow
       {
        OFFSET 0.000000 -29.696600 0.000000
        CHANNELS 3 Yrotation Xrotation Zrotation
        JOINT LeftWrist
        {
         OFFSET 0.000000 -24.004700 0.000000
         CHANNELS 3 Yrotation Xrotation Zrotation
         End Site
         {
          OFFSET 0.000000 -17.728500 0.000000
         }
        }
       }
      }
     }
    }
   }
  }
 }
 JOINT RightHip
 {
  OFFSET -7.771700 -0.012900 -0.001300
  CHANNELS 3 Yrotation Xrotation Zrotation
  JOINT RightKnee
  {
   OFFSET 0.000000 -40.869800 0.001200
   CHANNELS 3 Yrotation Xrotation Zrotation
   JOINT RightAnkle
   {
    OFFSET 0.000000 -39.717900 0.002100
    CHANNELS 3 Yrotation Xrotation Zrotation
    JOINT RightToe
    {
     OFFSET 0.000000 -4.965400 11.033500
     CHANNELS 3 Yrotation Xrotation Zrotation
     End Site
     {
      OFFSET 0.000000 -1.423100 5.872300
     }
    }
   }
  }
 }
 JOINT LeftHip
 {
  OFFSET 7.771700 -0.012900 -0.001300
  CHANNELS 3 Yrotation Xrotation Zrotation
  JOINT LeftKnee
  {
   OFFSET 0.000000 -40.869800 0.001200
   CHANNELS 3 Yrotation Xrotation Zrotation
   JOINT LeftAnkle
   {
    OFFSET 0.000000 -39.717900 0.002100
    CHANNELS 3 Yrotation Xrotation Zrotation
    JOINT LeftToe
    {
     OFFSET 0.000000 -4.965400 11.033500
     CHANNELS 3 Yrotation Xrotation Zrotation
     End Site
     {
      OFFSET 0.000000 -1.423100 5.872300
     }
    }
   }
  }
 }
}
MOTION
Frames: 6
Frame Time: 0.008333
-8.088557 54.772379 26.174731 179.880111 -30.917247 -11.278106 0.011841 12.673200 5.873927 0.123739 7.358225 2.187727 0.184220 9.251132 2.768546 0.133674 7.349204 2.186560 4.084358 18.919177 -0.647189 4.527384 -5.685436 -1.647669 0.256685 0.973486 -3.429121 -12.690059 -7.717028 8.062525 54.729241 -68.397984 -41.241359 12.476546 -10.011480 -23.319898 -9.904806 1.740494 -2.757084 6.318618 -1.447821 -1.998657 -59.417537 -73.056363 73.375793 11.530972 -16.503047 -9.279269 -17.504902 -33.828106 7.353104 39.413782 85.878523 35.865982 1.430314 -19.280404 0.519596 -0.578973 1.833370 -0.256710 -15.478365 -46.763558 17.297881 174.438603 79.757802 169.807554 -1.732267 -17.269573 1.517914 -0.262625 -1.267692 -0.091732
-8.086290 54.796561 26.179340 179.880704 -30.913208 -11.271014 0.007086 12.684584 5.879674 0.110632 7.386768 2.197792 0.183402 9.232343 2.755251 0.128764 7.361355 2.181704 4.056950 18.806365 -0.680468 4.504164 -5.802920 -1.680314 0.304166 0.865831 -3.504409 -12.693507 -7.777188 8.019134 54.287028 -68.598853 -40.775498 12.383598 -10.026018 -23.084793 -9.890894 1.694166 -2.758334 6.240249 -1.579778 -1.879757 -59.375847 -73.045902 73.316238 11.571660 -16.473817 -9.487206 -17.508672 -33.836608 7.351047 39.454263 85.879149 35.904944 1.435637 -19.286863 0.513457 -0.572117 1.838877 -0.256713 -15.460909 -46.765160 17.298640 174.476568 79.774435 169.841284 -1.726056 -17.265694 1.522022 -0.271719 -1.262490 -0.091005
-8.084750 54.819573 26.185680 179.877780 -30.906014 -11.261464 0.006983 12.688263 5.886807 0.106078 7.383503 2.189570 0.179505 9.234852 2.754541 0.114927 7.378198 2.190707 4.026777 18.699136 -0.721959 4.476234 -5.919219 -1.712143 0.357281 0.760831 -3.585325 -12.693761 -7.846171 7.971902 53.806097 -68.810303 -40.275259 12.288765 -10.026666 -22.839188 -9.893224 1.624722 -2.755292 6.188331 -1.697880 -1.769552 -59.348438 -73.043586 73.267103 11.631076 -16.452457 -9.713528 -17.507291 -33.851778 7.347529 39.419927 85.884623 35.873547 1.444742 -19.287731 0.507674 -0.584080 1.841069 -0.257821 -15.438624 -46.773343 17.295166 174.485897 79.790534 169.849084 -1.727453 -17.256739 1.527861 -0.276790 -1.260312 -0.090232
-8.081430 54.847001 26.185177 179.772025 -30.973887 -11.213400 0.110723 12.748421 5.907236 0.104202 7.379001 2.183261 0.175087 9.237185 2.753304 0.088854 7.412661 2.207602 4.000562 18.575989 -0.776484 4.444829 -6.035555 -1.743640 0.418953 0.653958 -3.662544 -12.691182 -7.951455 7.914460 53.265501 -69.032736 -39.713908 12.195303 -10.010079 -22.594394 -9.886133 1.536884 -2.764890 6.147609 -1.832321 -1.654826 -59.332041 -73.045475 73.220648 11.715790 -16.440702 -9.979731 -17.403938 -33.809492 7.335800 39.430540 85.885413 35.887271 1.481140 -19.303527 0.504302 -0.610937 1.858746 -0.272157 -15.255027 -46.637029 17.269726 174.575750 79.853676 169.960085 -1.842940 -17.532173 1.515165 -0.178504 -1.020516 -0.048887
-8.078474 54.861853 26.205304 179.861355 -30.867734 -11.267436 0.015796 12.665344 5.921508 0.090217 7.402584 2.198033 0.165539 9.240909 2.747430 0.089567 7.402536 2.196663 3.963487 18.474050 -0.814955 4.412338 -6.149979 -1.775789 0.472505 0.567272 -3.723712 -12.691270 -8.077843 7.855853 52.654323 -69.264228 -39.083728 12.099259 -9.972472 -22.353707 -9.896557 1.468382 -2.763728 6.120176 -1.977613 -1.541695 -59.312360 -73.055302 73.162798 11.825559 -16.437289 -10.286458 -17.538934 -33.893317 7.384958 39.377600 85.879877 35.830652 1.495127 -19.301304 0.497908 -0.620788 1.865649 -0.278250 -15.414841 -46.817765 17.349532 174.430175 79.813847 169.792528 -1.776068 -17.232825 1.559195 -0.268268 -1.259448 -0.094842
-8.078170 54.882832 26.213685 179.864667 -30.861865 -11.264585 0.008988 12.666674 5.922192 0.086227 7.403082 2.195996 0.148963 9.254078 2.752269 0.093949 7.398303 2.190466 3.920204 18.379147 -0.849604 4.378847 -6.258355 -1.807049 0.521717 0.487574 -3.778879 -12.689830 -8.225837 7.796975 51.982832 -69.500426 -38.399687 11.998436 -9.906708 -22.111434 -9.932112 1.353367 -2.761375 6.122272 -2.083820 -1.426164 -59.289166 -73.085437 73.091355 11.953497 -16.427256 -10.629628 -17.550210 -33.900952 7.384230 39.317860 85.876735 35.768378 1.513601 -19.307300 0.491362 -0.633092 1.878444 -0.280781 -15.408857 -46.825583 17.349483 174.387267 79.827516 169.746814 -1.787877 -17.217423 1.565369 -0.254439 -1.264695 -0.102900
